. 
  
http://www.torrentday.com/        :     The Hottest Private Tracker On The Net!!!
 
http://www.torrentday.com          :     Once & For all ;)


               www . TorrentDay . Com 

(((((((((((((= Enjoy No RAR releases =))))))))))))))))))))


...................................NFO:....................................

.[img]http://img194.imageshack.us/img194/5180/thekingsspeechposter04.jpg[/img]

The Kings Speech 2011 DVDScr XVID AC3 HQ Hive-CM8



[b]Thx Hive

CM8 Doing It Right The First Time :D

Source:
The Kings Speech 2010 DVDSCR DVDR-Demedic
thx

Video: 720x400 @bitrate 1500 2pass
Audio: English AC3 5.1 @448
Sample: yes included

Encode: added brightness,sharpness,chroma,rgb colours,denoise[/b]
 
http://www.imdb.com/title/tt1504320/


General
Complete name                    : The.Kings.Speech.2011.DVDScr.XVID.AC3.HQ.Hive-CM8.avi
Format                           : AVI
Format/Info                      : Audio Video Interleave
File size                        : 1.62 GiB
Duration                         : 1h 58mn
Overall bit rate                 : 1 957 Kbps
Writing application              : Nandub v1.0rc2
Writing library                  : Nandub build 1853/release

Video
ID                               : 0
Format                           : MPEG-4 Visual
Format profile                   : Advanced Simple@L5
Format settings, BVOP            : Yes
Format settings, QPel            : Yes
Format settings, GMC             : No warppoints
Format settings, Matrix          : Default (H.263)
Muxing mode                      : Packed bitstream
Codec ID                         : XVID
Codec ID/Hint                    : XviD
Duration                         : 1h 58mn
Bit rate                         : 1 500 Kbps
Width                            : 720 pixels
Height                           : 400 pixels
Display aspect ratio             : 16:9
Frame rate                       : 23.976 fps
Color space                      : YUV
Chroma subsampling               : 4:2:0
Bit depth                        : 8 bits
Scan type                        : Progressive
Bits/(Pixel*Frame)               : 0.217
Stream size                      : 1.24 GiB (77%)
Writing library                  : XviD 1.2.1 (UTC 2008-12-04)

Audio
ID                               : 1
Format                           : AC-3
Format/Info                      : Audio Coding 3
Mode extension                   : CM (complete main)
Codec ID                         : 2000
Duration                         : 1h 58mn
Bit rate mode                    : Constant
Bit rate                         : 448 Kbps
Channel(s)                       : 6 channels
Channel positions                : Front: L C R, Side: L R, LFE
Sampling rate                    : 48.0 KHz
Bit depth                        : 16 bits
Stream size                      : 380 MiB (23%)
Alignment                        : Split accross interleaves
Interleave, duration             : 42 ms (1.00 video frame)
Interleave, preload duration     : 500 ms




Colin Firth ... King George VI
Helena Bonham Carter ... Queen Elizabeth
Derek Jacobi ... Archbishop Cosmo Lang
Robert Portal ... Equerry  
Richard Dixon ... Private Secretary
Paul Trussell ... Driver for The House of Windsor
Adrian Scarborough ... BBC Radio Announcer   


The story of King George VI of Britain, his impromptu ascension to the throne 
and the speech therapist who helped the unsure monarch become worthy of it. 



[img]http://img692.imageshack.us/img692/391/94414267.png[/img]
[img]http://img214.imageshack.us/img214/3220/kikir.png[/img]
[img]http://img814.imageshack.us/img814/9106/kikiki.png[/img]
[img]http://img689.imageshack.us/img689/69/kikikiki.png[/img]
[img]http://img692.imageshack.us/img692/9647/kikikikiki.png[/img]
[img]http://img708.imageshack.us/img708/9417/kikikikikiki.png[/img]
[img]http://img10.imageshack.us/img10/7545/kikikikikikikie.png[/img]
[img]http://img513.imageshack.us/img513/2789/kikikikkiikikiki.png[/img]





Greetz

iNK,LUSi,,MAGNET,CLASSiFiED,THC,LEGi0N,IMAGiNE,ViSiON,WBZ,FLAWL3SS,NOVA
Rapeseed,D2U,SAFC,goldadvance,MEMORY100,KaN1vE,Unevano,Pinnz,Wayne,Mr Hive
and all P2P groups 
Great Work Guys :D